<svg width="255" height="179" viewBox="0 0 255 179" fill="none" xmlns="http://www.w3.org/2000/svg">
<path d="M245.17 101.617L145.671 168.055L147.643 128.489C-16.1977 120.324 -31.283 42.7962 -24.6335 0.908127C-18.8114 22.4984 -17.3194 56.8037 150.798 65.1818L152.77 25.6151L245.17 101.617Z" stroke="black" stroke-width="10" stroke-linecap="round" stroke-linejoin="round"/>
<path d="M70.5174 78.0268L77.1328 78.9513L74.6394 96.7929L79.1551 97.424L81.6486 79.5824L88.264 80.507L88.7904 76.7403L71.0438 74.2601L70.5174 78.0268ZM86.9259 98.51L91.4205 99.1381L92.7019 89.9694C92.9806 87.9753 94.6283 86.8072 96.6119 87.0844C97.2344 87.1714 98.0742 87.3963 98.4771 87.5925L99.0345 83.6043C98.6468 83.4533 98.0965 83.3118 97.6428 83.2484C95.828 82.9948 94.1929 83.842 93.3219 85.764L93.1531 85.7405L93.5483 82.9128L89.1908 82.3038L86.9259 98.51ZM101.502 106.743C104.847 107.21 106.858 105.749 108.142 103.261L116.947 86.2045L112.192 85.5183L107.142 96.9464L106.973 96.9228L105.281 84.5525L100.554 83.8919L104.038 101.375L103.678 102.024C102.875 103.46 101.736 103.377 100.221 102.67L98.7391 105.884C99.3444 106.248 100.362 106.584 101.502 106.743ZM126.966 82.0756L123.946 103.684L128.378 104.303L130.351 90.186L130.53 90.2111L134.164 105.004L137.181 105.426L144.724 92.2486L144.903 92.2736L142.938 106.338L147.369 106.957L150.389 85.3491L144.755 84.5617L136.775 98.248L136.522 98.2126L132.6 82.863L126.966 82.0756ZM158.39 108.82C162.399 109.381 165.373 107.806 166.427 104.888L162.308 104.032C161.682 105.203 160.431 105.685 158.933 105.475C156.686 105.161 155.469 103.475 155.807 101.058L155.808 101.048L166.844 102.59L167.017 101.356C167.787 95.8482 164.833 92.6601 160.549 92.0615C155.78 91.395 152.216 94.3498 151.517 99.3509C150.799 104.489 153.4 108.123 158.39 108.82ZM156.198 98.2624C156.551 96.4293 158.16 95.1483 160.154 95.427C162.106 95.6998 163.262 97.2812 163.003 99.2135L156.198 98.2624Z" fill="black"/>
</svg>
